<svg xmlns="http://www.w3.org/2000/svg" viewBox="0 0 389.768 389.768" style="enable-background:new 0 0 389.768 389.768" xml:space="preserve"><path d="M155.718 243.765a8 8 0 0 0 0 16c40.251 0 72.997-32.746 72.997-72.997s-32.746-72.997-72.997-72.997a8 8 0 0 0 0 16c31.429 0 56.997 25.568 56.997 56.997s-25.568 56.997-56.997 56.997z"/><path d="M155.718 292.268c58.173 0 105.5-47.327 105.5-105.5 0-42.599-25.38-80.79-64.658-97.299a8 8 0 0 0-6.2 14.75c33.324 14.006 54.857 46.408 54.857 82.549 0 49.351-40.149 89.5-89.5 89.5a8 8 0 1 0 .001 16z"/><path d="M277.721 186.768c0 67.272-54.73 122.003-122.003 122.003a8 8 0 0 0 0 16c76.095 0 138.003-61.908 138.003-138.003S231.813 48.765 155.718 48.765c-16.198 0-32.064 2.782-47.159 8.27a8 8 0 0 0 5.467 15.037c13.337-4.849 27.364-7.307 41.692-7.307 67.273 0 122.003 54.731 122.003 122.003z"/><path d="M310.215 186.768c0 85.19-69.307 154.497-154.497 154.497a8 8 0 0 0 0 16c94.013 0 170.497-76.484 170.497-170.497S249.731 16.271 155.718 16.271c-46.535 0-90.008 18.402-122.411 51.816a8 8 0 0 0 11.487 11.139c29.363-30.279 68.757-46.955 110.925-46.955 85.19 0 154.496 69.307 154.496 154.497z"/><path d="M236.933.672a7.999 7.999 0 0 0-10.534 4.126 7.999 7.999 0 0 0 4.126 10.534c68.155 29.787 112.193 97.079 112.193 171.436 0 103.112-83.888 187-187 187a8 8 0 0 0 0 16c111.935 0 203-91.065 203-203 0-80.716-47.803-153.763-121.785-186.096z"/></svg>